<svg width="24" height="19" viewBox="0 0 24 19" fill="none" xmlns="http://www.w3.org/2000/svg">
<path d="M20.317 2.3537C18.7873 1.66844 17.147 1.16355 15.4319 0.874381C15.4007 0.868802 15.3694 0.882749 15.3534 0.910644C15.1424 1.27699 14.9087 1.75491 14.7451 2.13055C12.9004 1.86091 11.0652 1.86091 9.25831 2.13055C9.09466 1.74654 8.85248 1.27699 8.64058 0.910644C8.6245 0.883679 8.59328 0.869732 8.56206 0.874381C6.84792 1.16262 5.20756 1.66751 3.67694 2.3537C3.66369 2.35928 3.65234 2.36858 3.64477 2.38067C0.533392 6.91905 -0.31895 11.3459 0.0991801 15.7178C0.101072 15.7392 0.11337 15.7597 0.130398 15.7727C2.18321 17.2446 4.17169 18.1381 6.12328 18.7304C6.1545 18.7397 6.18761 18.7285 6.20748 18.7034C6.66912 18.0879 7.08063 17.4389 7.43349 16.7564C7.4543 16.7164 7.43443 16.669 7.39186 16.6532C6.73913 16.4114 6.11761 16.1167 5.51974 15.782C5.47244 15.755 5.46865 15.689 5.51217 15.6574C5.63799 15.5653 5.7638 15.4696 5.88395 15.3729C5.9057 15.3552 5.93598 15.3515 5.96152 15.3626C9.88929 17.1135 14.1415 17.1135 18.023 15.3626C18.0485 15.3505 18.0788 15.3543 18.1015 15.3719C18.2216 15.4686 18.3474 15.5653 18.4742 15.6574C18.5177 15.689 18.5149 15.755 18.4676 15.782C17.8697 16.1232 17.2482 16.4114 16.5945 16.6523C16.5519 16.6681 16.533 16.7164 16.5538 16.7564C16.9143 17.438 17.3258 18.087 17.7789 18.7025C17.7978 18.7285 17.8319 18.7397 17.8631 18.7304C19.8241 18.1381 21.8126 17.2446 23.8654 15.7727C23.8834 15.7597 23.8948 15.7401 23.8967 15.7187C24.3971 10.6643 23.0585 6.27377 20.3482 2.3816C20.3416 2.36858 20.3303 2.35928 20.317 2.3537ZM8.02001 13.0558C6.83751 13.0558 5.86313 11.9958 5.86313 10.6941C5.86313 9.39234 6.81859 8.33236 8.02001 8.33236C9.23088 8.33236 10.1958 9.40164 10.1769 10.6941C10.1769 11.9958 9.22142 13.0558 8.02001 13.0558ZM15.9948 13.0558C14.8123 13.0558 13.8379 11.9958 13.8379 10.6941C13.8379 9.39234 14.7933 8.33236 15.9948 8.33236C17.2056 8.33236 18.1705 9.40164 18.1516 10.6941C18.1516 11.9958 17.2056 13.0558 15.9948 13.0558Z" fill="white"/>
</svg>
