<svg width="24" height="25" viewBox="0 0 24 25" fill="none" xmlns="http://www.w3.org/2000/svg">
<path d="M17 2.87317H7C4.23858 2.87317 2 5.11175 2 7.87317V17.8732C2 20.6346 4.23858 22.8732 7 22.8732H17C19.7614 22.8732 22 20.6346 22 17.8732V7.87317C22 5.11175 19.7614 2.87317 17 2.87317Z" stroke="#F7F7F8" stroke-width="2" stroke-linecap="round" stroke-linejoin="round"/>
<path d="M15.9997 12.2435C16.1231 13.0757 15.981 13.9257 15.5935 14.6725C15.206 15.4193 14.5929 16.0249 13.8413 16.4031C13.0898 16.7814 12.2382 16.9131 11.4075 16.7794C10.5768 16.6457 9.80947 16.2536 9.21455 15.6586C8.61962 15.0637 8.22744 14.2963 8.09377 13.4657C7.96011 12.635 8.09177 11.7834 8.47003 11.0318C8.84829 10.2803 9.45389 9.66721 10.2007 9.27971C10.9475 8.89221 11.7975 8.75006 12.6297 8.87347C13.4786 8.99936 14.2646 9.39493 14.8714 10.0018C15.4782 10.6086 15.8738 11.3945 15.9997 12.2435Z" stroke="#F7F7F8" stroke-width="2" stroke-linecap="round" stroke-linejoin="round"/>
<path d="M17.5 7.37317H17.508" stroke="#F7F7F8" stroke-width="2" stroke-linecap="round" stroke-linejoin="round"/>
</svg>
