<svg width="20" height="20" viewBox="0 0 20 20" fill="none" xmlns="http://www.w3.org/2000/svg">
<path fill-rule="evenodd" clip-rule="evenodd" d="M10.0083 0.0395508C4.47396 0.0395508 0 4.54649 0 10.1222C0 14.5791 2.86662 18.3519 6.84338 19.6871C7.34058 19.7875 7.5227 19.4702 7.5227 19.2033C7.5227 18.9695 7.50631 18.1683 7.50631 17.3335C4.72225 17.9346 4.14249 16.1316 4.14249 16.1316C3.69508 14.9631 3.03215 14.6627 3.03215 14.6627C2.12092 14.0451 3.09852 14.0451 3.09852 14.0451C4.1093 14.1119 4.63969 15.08 4.63969 15.08C5.53432 16.6157 6.97592 16.1818 7.55588 15.9146C7.63865 15.2636 7.90394 14.8129 8.18563 14.5625C5.96514 14.3288 3.62891 13.4608 3.62891 9.58791C3.62891 8.48617 4.02634 7.58478 4.65608 6.88375C4.55672 6.63341 4.20866 5.59825 4.75564 4.21277C4.75564 4.21277 5.60069 3.94563 7.5061 5.24773C8.32188 5.02703 9.16317 4.91475 10.0083 4.91381C10.8533 4.91381 11.7148 5.03078 12.5102 5.24773C14.4159 3.94563 15.2609 4.21277 15.2609 4.21277C15.8079 5.59825 15.4596 6.63341 15.3603 6.88375C16.0066 7.58478 16.3876 8.48617 16.3876 9.58791C16.3876 13.4608 14.0514 14.312 11.8143 14.5625C12.179 14.8797 12.4936 15.4805 12.4936 16.4321C12.4936 17.7842 12.4773 18.8693 12.4773 19.2031C12.4773 19.4702 12.6596 19.7875 13.1566 19.6873C17.1333 18.3517 20 14.5791 20 10.1222C20.0163 4.54649 15.526 0.0395508 10.0083 0.0395508Z" fill="white"/>
</svg>
